<svg
  xmlns="http://www.w3.org/2000/svg"
  width="19"
  height="30"
  viewBox="0 0 19 30"
  fill="none"
>
  <path
    d="M16.116 3.002C18.012 4.898 18.96 7.16267 18.96 9.79601C18.96 13.7987 17.696 17.4853 15.168 20.856C12.7453 24.2267 9.58534 27.0707 5.688 29.388L2.844 26.86C3.89733 25.912 4.84533 24.7007 5.688 23.226C6.636 21.7513 7.16267 20.3293 7.268 18.96C5.16134 18.4333 3.42333 17.3273 2.054 15.642C0.684667 13.9567 0 12.008 0 9.79601C0 7.16267 0.895334 4.898 2.686 3.002C4.582 1.00067 6.84667 0 9.48 0C12.1133 0 14.3253 1.00067 16.116 3.002Z"
    fill="#B3B3B3"
    fill-opacity="0.5"
  />
</svg>
